<svg width="747" height="735" viewBox="0 0 747 735" fill="none" xmlns="http://www.w3.org/2000/svg">
<path d="M501.77 12.9607C501.77 12.9607 384.089 -28.8697 268.56 37.7677C153.031 104.405 94.7891 236.676 44.7335 342.62C-5.32214 448.563 23.4914 556.351 111.631 605.496C199.77 654.64 259.759 582.194 383.426 578.666C507.093 575.138 540.355 592.825 643.039 522.935C745.722 453.045 764.311 288.054 683.339 165.832C602.367 43.6093 501.77 12.9607 501.77 12.9607Z" fill="#92E3A9"/>
<path opacity="0.7" d="M501.77 12.9607C501.77 12.9607 384.089 -28.8697 268.56 37.7677C153.031 104.405 94.7891 236.676 44.7335 342.62C-5.32214 448.563 23.4914 556.351 111.631 605.496C199.77 654.64 259.759 582.194 383.426 578.666C507.093 575.138 540.355 592.825 643.039 522.935C745.722 453.045 764.311 288.054 683.339 165.832C602.367 43.6093 501.77 12.9607 501.77 12.9607Z" fill="white"/>
<path d="M387.859 734.01C583.33 734.01 741.791 725.504 741.791 715.012C741.791 704.52 583.33 696.015 387.859 696.015C192.387 696.015 33.9263 704.52 33.9263 715.012C33.9263 725.504 192.387 734.01 387.859 734.01Z" fill="#92E3A9"/>
<path opacity="0.5" d="M387.859 734.01C583.33 734.01 741.791 725.504 741.791 715.012C741.791 704.52 583.33 696.015 387.859 696.015C192.387 696.015 33.9263 704.52 33.9263 715.012C33.9263 725.504 192.387 734.01 387.859 734.01Z" fill="white"/>
<path d="M33.9101 690.432H734.43" stroke="#263238" stroke-linecap="round" stroke-linejoin="round"/>
<path d="M713.398 33.447H423.807V52.8654H713.398V33.447Z" stroke="#263238" stroke-linecap="round" stroke-linejoin="round"/>
<path d="M713.398 57.72H423.807V77.1384H713.398V57.72Z" stroke="#263238" stroke-linecap="round" stroke-linejoin="round"/>
<path d="M713.398 81.993H423.807V101.411H713.398V81.993Z" stroke="#263238" stroke-linecap="round" stroke-linejoin="round"/>
<path d="M713.398 106.266H423.807V125.684H713.398V106.266Z" stroke="#263238" stroke-linecap="round" stroke-linejoin="round"/>
<path d="M713.398 130.539H423.807V149.957H713.398V130.539Z" stroke="#263238" stroke-linecap="round" stroke-linejoin="round"/>
<path d="M713.398 154.812H423.807V174.23H713.398V154.812Z" stroke="#263238" stroke-linecap="round" stroke-linejoin="round"/>
<path d="M713.398 179.085H423.807V198.503H713.398V179.085Z" stroke="#263238" stroke-linecap="round" stroke-linejoin="round"/>
<path d="M713.398 203.358H423.807V222.776H713.398V203.358Z" stroke="#263238" stroke-linecap="round" stroke-linejoin="round"/>
<path d="M713.398 227.631H423.807V247.049H713.398V227.631Z" stroke="#263238" stroke-linecap="round" stroke-linejoin="round"/>
<path d="M713.398 251.904H423.807V271.322H713.398V251.904Z" stroke="#263238" stroke-linecap="round" stroke-linejoin="round"/>
<path d="M713.398 276.177H423.807V295.595H713.398V276.177Z" stroke="#263238" stroke-linecap="round" stroke-linejoin="round"/>
<path d="M713.398 300.449H423.807V319.868H713.398V300.449Z" stroke="#263238" stroke-linecap="round" stroke-linejoin="round"/>
<path d="M713.398 324.723H423.807V344.141H713.398V324.723Z" stroke="#263238" stroke-linecap="round" stroke-linejoin="round"/>
<path d="M92.8477 351.762C92.8477 351.762 92.8477 344.011 82.0083 333.169C71.1688 322.327 64.2121 316.13 64.2121 316.13C64.2121 316.13 58.7924 333.93 68.8553 344.788C76.2542 352.426 84.2797 359.43 92.8477 365.727V351.762Z" fill="#92E3A9"/>
<path d="M77.1224 400.114C77.1224 400.114 77.1224 392.363 66.283 381.537C55.4435 370.712 48.4868 364.498 48.4868 364.498C48.4868 364.498 43.0671 382.298 53.13 393.14C60.5302 400.766 68.5557 407.76 77.1224 414.047V400.114Z" fill="#92E3A9"/>
<path d="M92.2167 364.951C92.2167 364.951 93.0418 357.248 104.965 347.604C116.889 337.959 124.46 332.554 124.46 332.554C124.46 332.554 127.971 350.84 116.824 360.549C108.652 367.346 99.9285 373.452 90.7445 378.803L92.2167 364.951Z" fill="#92E3A9"/>
<path d="M73.1749 422.057C73.1749 422.057 74.7927 414.484 87.7354 406.15C100.678 397.816 108.767 393.205 108.767 393.205C108.767 393.205 110.385 411.749 98.2189 420.245C89.3832 426.147 80.0699 431.3 70.3761 435.65L73.1749 422.057Z" fill="#92E3A9"/>
<path d="M76.7341 484.325C76.7341 484.325 76.7341 476.574 87.5736 465.732C98.413 454.89 105.37 448.709 105.37 448.709C105.37 448.709 110.789 466.509 100.727 477.351C93.3277 484.979 85.3021 491.972 76.7341 498.258V484.325Z" fill="#92E3A9"/>
<path d="M76.5562 499.52C76.5562 499.52 77.6563 491.85 68.467 479.584C59.2777 467.318 53.2594 460.165 53.2594 460.165C53.2594 460.165 45.3806 477.027 53.7933 489.18C60.0385 497.783 66.9925 505.848 74.5824 513.291L76.5562 499.52Z" fill="#92E3A9"/>
<path d="M65.8785 544.571C65.8785 544.571 65.8785 536.819 76.718 525.978C87.5574 515.136 94.5141 508.954 94.5141 508.954C94.5141 508.954 99.9338 526.754 89.8709 537.596C82.4707 545.223 74.4452 552.216 65.8785 558.503V544.571Z" fill="#92E3A9"/>
<path d="M73.1102 585.398C73.1102 585.398 71.185 577.922 78.8858 564.766C86.5867 551.61 91.8285 543.729 91.8285 543.729C91.8285 543.729 101.535 559.571 94.5949 572.614C89.3661 581.871 83.3699 590.672 76.6694 598.926L73.1102 585.398Z" fill="#92E3A9"/>
<path d="M93.8346 349.772C93.2912 357.837 92.2974 365.865 90.8578 373.819C86.5867 395.956 75.8767 410.244 71.5894 430.229C67.3022 450.214 79.6786 475.992 76.3135 501.688C72.9484 527.385 63.015 541.658 65.8785 558.795C68.7421 575.931 83.6746 622.357 83.6746 622.357" stroke="#263238" stroke-linecap="round" stroke-linejoin="round"/>
<path d="M92.0711 370.097L103.752 361.132" stroke="#263238" stroke-linecap="round" stroke-linejoin="round"/>
<path d="M92.605 359.773L87.7192 351.067" stroke="#263238" stroke-linecap="round" stroke-linejoin="round"/>
<path d="M72.2366 429.323C72.2366 429.323 81.9435 421.976 92.0711 414.646" stroke="#263238" stroke-linecap="round" stroke-linejoin="round"/>
<path d="M77.1224 414.047C77.1224 414.047 69.0333 398.075 59.7469 387.476" stroke="#263238" stroke-linecap="round" stroke-linejoin="round"/>
<path d="M77.1224 495.345C82.7026 485.049 89.7491 475.619 98.0409 467.35" stroke="#263238" stroke-linecap="round" stroke-linejoin="round"/>
<path d="M75.2295 506.203C72.2829 499.226 68.7657 492.504 64.7137 486.105C59.0027 477.674 58.2423 476.59 58.2423 476.59" stroke="#263238" stroke-linecap="round" stroke-linejoin="round"/>
<path d="M65.8785 558.794C68.3546 552.646 71.2968 546.695 74.6795 540.994C78.0612 535.708 81.8762 530.712 86.0852 526.058" stroke="#263238" stroke-linecap="round" stroke-linejoin="round"/>
<path d="M76.637 598.893C76.069 593.017 77.0799 587.095 79.5653 581.741C83.6422 573.86 88.2531 563.536 90.1621 559.458" stroke="#263238" stroke-linecap="round" stroke-linejoin="round"/>
<path d="M21.8736 455.198C21.8736 455.198 21.0323 450.343 26.727 442.365C32.4218 434.388 36.0457 429.76 36.0457 429.76C36.0457 429.76 41.3684 440.343 36.2399 448.223C32.4243 453.807 28.1492 459.063 23.459 463.936L21.8736 455.198Z" fill="#92E3A9"/>
<path d="M36.9841 483.856C36.9841 483.856 36.159 479.001 41.8376 471.024C47.5162 463.046 51.1563 458.402 51.1563 458.402C51.1563 458.402 56.4789 468.985 51.3504 476.881C47.5353 482.466 43.2601 487.722 38.5696 492.594L36.9841 483.856Z" fill="#92E3A9"/>
<path d="M23.7341 463.402C23.7341 463.402 22.3913 458.661 13.8653 453.919C5.33935 449.178 0.000519775 446.637 0.000519775 446.637C0.000519775 446.637 -0.209797 458.483 7.83081 463.369C13.6928 466.74 19.8237 469.62 26.1608 471.978L23.7341 463.402Z" fill="#92E3A9"/>
<path d="M41.8538 497.141C41.8538 497.141 40.0094 492.578 31.0467 488.759C22.0839 484.94 16.4862 482.917 16.4862 482.917C16.4862 482.917 17.5054 494.73 26.0314 498.743C32.2161 501.482 38.6178 503.701 45.1703 505.378L41.8538 497.141Z" fill="#92E3A9"/>
<path d="M46.3675 536.577C46.3675 536.577 45.5262 531.722 37.5503 526.107C29.5744 520.492 24.6077 517.353 24.6077 517.353C24.6077 517.353 23.1355 529.117 30.626 534.813C36.0767 538.799 41.8509 542.323 47.8883 545.347L46.3675 536.577Z" fill="#92E3A9"/>
<path d="M48.1309 546.092C48.1309 546.092 46.6102 541.415 51.043 532.709C55.4759 524.003 58.4688 518.906 58.4688 518.906C58.4688 518.906 65.2475 528.615 61.2839 537.159C58.3081 543.236 54.8227 549.05 50.865 554.539L48.1309 546.092Z" fill="#92E3A9"/>
<path d="M61.7369 585.268C61.7369 585.268 62.3031 580.414 69.9392 574.297C77.5754 568.18 82.5098 564.766 82.5098 564.766C82.5098 564.766 84.6453 576.433 77.4945 582.566C72.2577 586.848 66.673 590.685 60.7985 594.039L61.7369 585.268Z" fill="#92E3A9"/>
<path d="M59.7307 573.18C59.7307 573.18 58.8895 568.326 50.9136 562.711C42.9377 557.095 37.9709 553.956 37.9709 553.956C37.9709 553.956 36.5149 565.704 44.0054 571.416C49.4689 575.4 55.2598 578.913 61.3162 581.919L59.7307 573.18Z" fill="#92E3A9"/>
<path d="M59.6175 599.573C59.6175 599.573 60.0381 594.718 53.7448 587.21C47.4514 579.702 43.3745 575.446 43.3745 575.446C43.3745 575.446 38.974 586.449 44.782 593.861C49.0588 599.105 53.7728 603.977 58.8733 608.425L59.6175 599.573Z" fill="#92E3A9"/>
<path d="M21.0323 454.065C22.2531 459.061 23.7437 463.988 25.4975 468.823C30.6098 482.237 38.8284 490.037 43.6819 502.109C48.5354 514.181 43.6819 531.673 48.5354 547.418C53.3889 563.164 61.2192 571.044 61.2839 582.096C61.3486 593.149 56.9966 623.911 56.9966 623.911" stroke="#263238" stroke-linecap="round" stroke-linejoin="round"/>
<path d="M24.365 466.606L16.0656 462.253" stroke="#263238" stroke-linecap="round" stroke-linejoin="round"/>
<path d="M22.909 460.198L25.0283 454.21" stroke="#263238" stroke-linecap="round" stroke-linejoin="round"/>
<path d="M43.2289 501.656C43.2289 501.656 36.3046 498.112 29.2023 494.601" stroke="#263238" stroke-linecap="round" stroke-linejoin="round"/>
<path d="M38.5048 492.562C40.5416 486.121 43.2247 479.902 46.5131 474.001" stroke="#263238" stroke-linecap="round" stroke-linejoin="round"/>
<path d="M47.322 543.535C42.6966 537.687 37.247 532.541 31.1437 528.259" stroke="#263238" stroke-linecap="round" stroke-linejoin="round"/>
<path d="M49.7002 550.202C50.8032 545.501 52.2968 540.9 54.1654 536.447C56.8186 530.541 57.2069 529.78 57.2069 529.78" stroke="#263238" stroke-linecap="round" stroke-linejoin="round"/>
<path d="M60.8956 590.495C63.5886 587.148 66.5716 584.045 69.8098 581.223C71.8735 579.705 73.8104 578.022 75.6016 576.19" stroke="#263238" stroke-linecap="round" stroke-linejoin="round"/>
<path d="M61.2677 582.096C59.0468 578.507 56.5534 575.093 53.8095 571.886C51.1134 568.953 48.1806 566.247 45.0409 563.795" stroke="#263238" stroke-linecap="round" stroke-linejoin="round"/>
<path d="M58.8733 608.457C58.5888 604.71 57.3098 601.107 55.1685 598.02C51.7549 593.521 47.7426 587.55 46.1086 585.203" stroke="#263238" stroke-linecap="round" stroke-linejoin="round"/>
<path d="M99.6749 699.076H49.3443C48.293 699.076 47.2849 698.658 46.5415 697.915C45.7982 697.171 45.3806 696.163 45.3806 695.111L32.891 617.568H116.112L103.639 695.111C103.639 696.163 103.221 697.171 102.478 697.915C101.734 698.658 100.726 699.076 99.6749 699.076Z" fill="#263238" stroke="#263238" stroke-linecap="round" stroke-linejoin="round"/>
<path d="M115.384 628.474H32.8748C31.1585 628.474 29.5125 627.792 28.2989 626.578C27.0853 625.364 26.4035 623.718 26.4035 622.001C26.4035 620.285 27.0853 618.638 28.2989 617.424C29.5125 616.211 31.1585 615.529 32.8748 615.529H115.384C117.1 615.529 118.746 616.211 119.96 617.424C121.174 618.638 121.855 620.285 121.855 622.001C121.855 623.718 121.174 625.364 119.96 626.578C118.746 627.792 117.1 628.474 115.384 628.474Z" fill="#263238" stroke="#263238" stroke-linecap="round" stroke-linejoin="round"/>
<path d="M36.159 628.749H96.0672" stroke="white" stroke-linecap="round" stroke-linejoin="round"/>
<path d="M101.713 628.749H111.566" stroke="white" stroke-linecap="round" stroke-linejoin="round"/>
<path d="M314.604 138.63C344.536 138.63 368.801 114.359 368.801 84.4202C368.801 54.4811 344.536 30.2106 314.604 30.2106C284.671 30.2106 260.406 54.4811 260.406 84.4202C260.406 114.359 284.671 138.63 314.604 138.63Z" stroke="#263238" stroke-width="4" stroke-linecap="round" stroke-linejoin="round"/>
<path d="M314.603 88.4496C316.828 88.4496 318.632 86.6456 318.632 84.4202C318.632 82.1949 316.828 80.3909 314.603 80.3909C312.379 80.3909 310.575 82.1949 310.575 84.4202C310.575 86.6456 312.379 88.4496 314.603 88.4496Z" stroke="#263238" stroke-width="2" stroke-linecap="round" stroke-linejoin="round"/>
<path d="M318.632 84.4203H338.531" stroke="#263238" stroke-width="2" stroke-linecap="round" stroke-linejoin="round"/>
<path d="M310.899 86.5886L273.705 107.14" stroke="#263238" stroke-width="2" stroke-linecap="round" stroke-linejoin="round"/>
<path d="M314.086 35.4374V46.5383" stroke="#263238" stroke-linecap="round" stroke-linejoin="round"/>
<path d="M314.086 121.752V132.853" stroke="#263238" stroke-linecap="round" stroke-linejoin="round"/>
<path d="M265.389 84.1452H276.487" stroke="#263238" stroke-linecap="round" stroke-linejoin="round"/>
<path d="M351.684 84.1452H362.782" stroke="#263238" stroke-linecap="round" stroke-linejoin="round"/>
<path d="M287.214 124.762L293.345 115.506" stroke="#263238" stroke-linecap="round" stroke-linejoin="round"/>
<path d="M334.843 52.7845L340.958 43.5123" stroke="#263238" stroke-linecap="round" stroke-linejoin="round"/>
<path d="M270.938 61.5714L280.775 66.7172" stroke="#263238" stroke-linecap="round" stroke-linejoin="round"/>
<path d="M347.397 101.573L357.249 106.719" stroke="#263238" stroke-linecap="round" stroke-linejoin="round"/>
<path d="M286.372 44.0948L292.698 53.2214" stroke="#263238" stroke-linecap="round" stroke-linejoin="round"/>
<path d="M335.49 115.069L341.799 124.196" stroke="#263238" stroke-linecap="round" stroke-linejoin="round"/>
<path d="M270.793 106.46L280.661 101.379" stroke="#263238" stroke-linecap="round" stroke-linejoin="round"/>
<path d="M347.51 66.9114L357.379 61.8141" stroke="#263238" stroke-linecap="round" stroke-linejoin="round"/>
<path d="M373.104 272.779H458.412V359.546H339.13V306.761C339.13 297.748 342.709 289.105 349.081 282.732C355.452 276.359 364.094 272.779 373.104 272.779Z" fill="white" stroke="#263238" stroke-linecap="round" stroke-linejoin="round"/>
<path d="M485.996 273.199H575.689C580.743 273.199 585.591 275.208 589.165 278.782C592.739 282.357 594.747 287.206 594.747 292.262V694.222H485.996V273.199Z" fill="#3D3D3D" stroke="#263238" stroke-linecap="round" stroke-linejoin="round"/>
<path d="M599.988 287.682L538.754 294.155V286.63L599.988 280.174V287.682Z" fill="#737373" stroke="#263238" stroke-linecap="round" stroke-linejoin="round"/>
<path d="M544.642 302.036L504.116 306.324V290.287L544.642 286.015V302.036Z" fill="#737373" stroke="#263238" stroke-linecap="round" stroke-linejoin="round"/>
<path d="M410.735 707.216C418.633 707.216 425.036 700.811 425.036 692.911C425.036 685.01 418.633 678.606 410.735 678.606C402.836 678.606 396.433 685.01 396.433 692.911C396.433 700.811 402.836 707.216 410.735 707.216Z" fill="#263238" stroke="#263238" stroke-linecap="round" stroke-linejoin="round"/>
<path d="M356.813 707.216C364.711 707.216 371.114 700.811 371.114 692.911C371.114 685.01 364.711 678.606 356.813 678.606C348.914 678.606 342.511 685.01 342.511 692.911C342.511 700.811 348.914 707.216 356.813 707.216Z" fill="#263238" stroke="#263238" stroke-linecap="round" stroke-linejoin="round"/>
<path d="M629.206 707.216C637.105 707.216 643.508 700.811 643.508 692.911C643.508 685.01 637.105 678.606 629.206 678.606C621.308 678.606 614.905 685.01 614.905 692.911C614.905 700.811 621.308 707.216 629.206 707.216Z" fill="#263238" stroke="#263238" stroke-linecap="round" stroke-linejoin="round"/>
<path d="M575.284 707.216C583.183 707.216 589.586 700.811 589.586 692.911C589.586 685.01 583.183 678.606 575.284 678.606C567.386 678.606 560.983 685.01 560.983 692.911C560.983 700.811 567.386 707.216 575.284 707.216Z" fill="#263238" stroke="#263238" stroke-linecap="round" stroke-linejoin="round"/>
<path d="M594.747 322.36H339.13V694.254H594.747V322.36Z" fill="white" stroke="#263238" stroke-linecap="round" stroke-linejoin="round"/>
<path d="M332.416 457.819L330.539 457.658L256.491 451.169L229.134 448.757V454.955L289.026 466.995V473.645L330.539 487.578V496.899L359.789 499.472V497.4V460.214L332.416 457.819Z" fill="#ADADAD" stroke="#263238" stroke-linecap="round" stroke-linejoin="round"/>
<path d="M229.134 454.971L254.954 457.221" stroke="#263238" stroke-linecap="round" stroke-linejoin="round"/>
<path d="M289.026 466.995L313.277 469.131" stroke="#263238" stroke-linecap="round" stroke-linejoin="round"/>
<path d="M289.026 473.645L314.846 475.895" stroke="#263238" stroke-linecap="round" stroke-linejoin="round"/>
<path d="M330.539 487.578L355.664 489.779" stroke="#263238" stroke-linecap="round" stroke-linejoin="round"/>
<path d="M254.954 457.22L315.056 469.292V456.298L254.954 451.023V457.22Z" fill="white" stroke="#263238" stroke-linecap="round" stroke-linejoin="round"/>
<path d="M314.846 475.894L385.61 499.666V462.48L314.846 456.266V475.894Z" fill="white" stroke="#263238" stroke-linecap="round" stroke-linejoin="round"/>
<path d="M356.36 499.164L385.61 501.721V462.48L356.36 459.907V499.164Z" fill="white" stroke="#263238" stroke-linecap="round" stroke-linejoin="round"/>
<path d="M594.747 322.36H339.13V356.455H594.747V322.36Z" fill="#92E3A9" stroke="#263238" stroke-linecap="round" stroke-linejoin="round"/>
<path d="M380.433 435.472H344.291V448.903H380.433V435.472Z" fill="#3D3D3D" stroke="#263238" stroke-linecap="round" stroke-linejoin="round"/>
<path d="M744.088 368.98H688.209L608.692 396.732V425.666L744.088 368.98Z" fill="#ADADAD" stroke="#263238" stroke-linecap="round" stroke-linejoin="round"/>
<path d="M746.192 374.806L670.526 420.746L662.469 398.399L744.088 368.98L746.192 374.806Z" fill="white" stroke="#263238" stroke-linecap="round" stroke-linejoin="round"/>
<path d="M719.19 398.82L643.508 444.76L630.905 409.775L712.541 380.356L719.19 398.82Z" fill="white" stroke="#263238" stroke-linecap="round" stroke-linejoin="round"/>
<path d="M654.267 350.468H605.715V397.558H654.267V350.468Z" fill="white" stroke="#9E9E9E" stroke-linecap="round" stroke-linejoin="round"/>
<path d="M605.893 356.31H653.975" stroke="#9E9E9E" stroke-linecap="round" stroke-linejoin="round"/>
<path d="M605.893 362.329H653.975" stroke="#9E9E9E" stroke-linecap="round" stroke-linejoin="round"/>
<path d="M605.893 368.349H653.975" stroke="#9E9E9E" stroke-linecap="round" stroke-linejoin="round"/>
<path d="M605.893 374.369H653.975" stroke="#9E9E9E" stroke-linecap="round" stroke-linejoin="round"/>
<path d="M605.893 380.389H653.975" stroke="#9E9E9E" stroke-linecap="round" stroke-linejoin="round"/>
<path d="M605.893 386.424H653.975" stroke="#9E9E9E" stroke-linecap="round" stroke-linejoin="round"/>
<path d="M605.893 392.444H653.975" stroke="#9E9E9E" stroke-linecap="round" stroke-linejoin="round"/>
<path d="M701.41 381.327L654.202 397.509V350.42L701.41 334.238V381.327Z" fill="white" stroke="#9E9E9E" stroke-linecap="round" stroke-linejoin="round"/>
<path d="M654.38 356.197L701.119 340.176" stroke="#9E9E9E" stroke-linecap="round" stroke-linejoin="round"/>
<path d="M654.38 362.216L701.119 346.196" stroke="#9E9E9E" stroke-linecap="round" stroke-linejoin="round"/>
<path d="M654.38 368.236L701.119 352.216" stroke="#9E9E9E" stroke-linecap="round" stroke-linejoin="round"/>
<path d="M654.38 374.256L701.119 358.235" stroke="#9E9E9E" stroke-linecap="round" stroke-linejoin="round"/>
<path d="M654.38 380.292L701.119 364.271" stroke="#9E9E9E" stroke-linecap="round" stroke-linejoin="round"/>
<path d="M654.38 386.311L701.119 370.291" stroke="#9E9E9E" stroke-linecap="round" stroke-linejoin="round"/>
<path d="M654.38 392.331L701.119 376.311" stroke="#9E9E9E" stroke-linecap="round" stroke-linejoin="round"/>
<path d="M701.41 334.238H652.309L605.715 350.468L654.202 350.42L701.41 334.238Z" fill="white" stroke="#9E9E9E" stroke-linecap="round" stroke-linejoin="round"/>
<path d="M649.478 322.36H393.861V694.254H649.478V322.36Z" fill="white" stroke="#263238" stroke-linecap="round" stroke-linejoin="round"/>
<path d="M427.835 272.779H513.143V359.546H393.861V306.761C393.861 297.748 397.44 289.105 403.812 282.732C410.183 276.359 418.825 272.779 427.835 272.779Z" fill="#92E3A9" stroke="#263238" stroke-linecap="round" stroke-linejoin="round"/>
<path d="M393.861 322.36H649.478V450.197C649.478 459.84 645.654 469.088 638.845 475.914C632.036 482.74 622.798 486.585 613.158 486.607H430.343C420.689 486.607 411.43 482.771 404.603 475.943C397.777 469.115 393.942 459.854 393.942 450.197V322.36H393.861Z" fill="#92E3A9" stroke="#263238" stroke-linecap="round" stroke-linejoin="round"/>
<path d="M649.478 322.36H393.861V356.455H649.478V322.36Z" fill="#92E3A9" stroke="#263238" stroke-linecap="round" stroke-linejoin="round"/>
<path d="M451.181 357.993V485.053" stroke="#263238" stroke-linecap="round" stroke-linejoin="round"/>
<path d="M522.446 488.16V599.654" stroke="#263238" stroke-linecap="round" stroke-linejoin="round"/>
<path d="M393.861 599.719H647.925" stroke="#263238" stroke-linecap="round" stroke-linejoin="round"/>
<path d="M393.861 647.245H647.925" stroke="#263238" stroke-linecap="round" stroke-linejoin="round"/>
<path d="M565.302 541.367H479.557C478.878 541.367 478.206 541.233 477.579 540.972C476.951 540.712 476.382 540.33 475.902 539.849C475.423 539.368 475.043 538.797 474.785 538.169C474.526 537.541 474.394 536.868 474.396 536.188C474.396 534.819 474.94 533.506 475.908 532.538C476.876 531.57 478.189 531.026 479.557 531.026H565.302C565.981 531.024 566.654 531.156 567.282 531.415C567.91 531.673 568.481 532.053 568.962 532.533C569.443 533.012 569.824 533.582 570.085 534.209C570.345 534.837 570.479 535.509 570.479 536.188C570.479 537.562 569.934 538.879 568.963 539.85C567.992 540.821 566.675 541.367 565.302 541.367Z" fill="#92E3A9" stroke="#263238" stroke-linecap="round" stroke-linejoin="round"/>
<path d="M565.302 632.261H479.557C478.188 632.261 476.876 631.717 475.908 630.749C474.94 629.781 474.396 628.468 474.396 627.099C474.396 625.73 474.94 624.417 475.908 623.449C476.876 622.481 478.188 621.937 479.557 621.937H565.302C565.981 621.935 566.654 622.067 567.282 622.325C567.91 622.584 568.481 622.963 568.962 623.443C569.443 623.923 569.824 624.492 570.085 625.12C570.345 625.747 570.479 626.42 570.479 627.099C570.479 627.778 570.345 628.451 570.085 629.078C569.824 629.705 569.443 630.275 568.962 630.755C568.481 631.234 567.91 631.614 567.282 631.873C566.654 632.131 565.981 632.263 565.302 632.261Z" fill="#92E3A9" stroke="#263238" stroke-linecap="round" stroke-linejoin="round"/>
<path d="M565.302 673.59H479.557C478.189 673.59 476.876 673.046 475.908 672.078C474.94 671.11 474.396 669.797 474.396 668.428C474.394 667.748 474.526 667.075 474.785 666.447C475.043 665.819 475.423 665.248 475.902 664.767C476.382 664.286 476.951 663.904 477.579 663.644C478.206 663.383 478.878 663.249 479.557 663.249H565.302C566.675 663.249 567.992 663.795 568.963 664.766C569.934 665.737 570.479 667.054 570.479 668.428C570.479 669.107 570.345 669.779 570.085 670.407C569.824 671.034 569.443 671.604 568.962 672.083C568.481 672.563 567.91 672.943 567.282 673.201C566.654 673.46 565.981 673.592 565.302 673.59Z" fill="#92E3A9" stroke="#263238" stroke-linecap="round" stroke-linejoin="round"/>
<path d="M315.38 301.696H299.881V329.593H315.38V301.696Z" fill="#737373" stroke="#263238" stroke-linecap="round" stroke-linejoin="round"/>
<path d="M274.061 232.485H341.201V296.614C341.201 299.331 340.122 301.937 338.201 303.858C336.281 305.778 333.676 306.858 330.96 306.858H284.301C281.585 306.858 278.981 305.778 277.06 303.858C275.14 301.937 274.061 299.331 274.061 296.614V232.485Z" fill="#263238" stroke="#263238" stroke-linecap="round" stroke-linejoin="round"/>
<path d="M333.969 240.754H281.292V272.778H333.969V240.754Z" fill="#92E3A9" stroke="#263238" stroke-linecap="round" stroke-linejoin="round"/>
<path d="M359.789 328.088V327.522H281.292V335.791L359.789 345.079H385.61V327.522L359.789 328.088Z" fill="#ADADAD" stroke="#263238" stroke-linecap="round" stroke-linejoin="round"/>
<path d="M307.113 335.791L385.61 345.079V327.522H307.113V335.791Z" fill="white" stroke="#263238" stroke-linecap="round" stroke-linejoin="round"/>
<path d="M307.113 327.522H281.292V335.791H307.113V327.522Z" fill="#ADADAD" stroke="#263238" stroke-linecap="round" stroke-linejoin="round"/>
<path d="M202.698 688.477C202.698 688.477 230.007 697.28 230.412 703.041C230.816 708.802 187.474 707.329 178.641 701.504C169.808 695.678 202.698 688.477 202.698 688.477Z" fill="white" stroke="#263238" stroke-linecap="round" stroke-linejoin="round"/>
<path d="M160.732 687.037C160.732 687.037 198.783 704.546 194.852 712.426C190.921 720.307 141.463 709.918 134.992 706.18C128.521 702.442 160.732 687.037 160.732 687.037Z" fill="white" stroke="#263238" stroke-linecap="round" stroke-linejoin="round"/>
<path d="M129.184 620.836C140.412 576.595 158.548 521.075 150.459 483.727C142.369 446.379 139.134 376.521 144.764 345.986C150.394 315.45 154.115 310.385 154.115 306.712C154.115 303.039 142.272 247.502 142.272 247.502C142.272 247.502 125.447 211.902 130.43 201.999C135.413 192.095 170.326 181.431 180.291 179.57C190.257 177.709 215.188 180.816 215.188 180.816C215.188 180.816 245.102 192.03 248.839 196.998C252.576 201.966 248.839 220.689 248.839 228.78C248.839 236.871 247.593 236.871 248.839 240.01C250.084 243.149 256.313 248.732 255.682 261.192C255.051 273.652 248.208 285.465 247.593 293.556C246.978 301.647 255.682 329.707 261.927 367.103C268.172 404.5 264.92 457.641 246.218 515.605C227.516 573.569 215.479 611.904 216.142 641.824C216.806 671.745 217.469 688.008 217.469 688.008C211.389 693.079 203.784 695.962 195.871 696.196C188.164 696.623 180.433 696.206 172.817 694.95C172.817 694.95 167.818 701.811 147.886 705.549C127.955 709.287 113.621 702.426 113.621 702.426C117.195 674.946 122.392 647.702 129.184 620.836ZM208.959 482.481C210.205 460.667 206.468 411.28 206.468 411.28C204.076 432.933 202.786 454.693 202.601 476.477C201.97 516.366 195.24 539.846 195.24 542.338C195.24 542.305 207.714 504.294 208.959 482.481Z" fill="#263238" stroke="#263238" stroke-linecap="round" stroke-linejoin="round"/>
<path d="M259.791 205.429C254.938 194.636 246.315 194.636 246.315 194.636V194.878C238.08 189.377 215.22 180.816 215.22 180.816C215.22 180.816 190.29 177.693 180.324 179.57C170.358 181.447 135.461 192.03 130.478 201.998C125.495 211.967 142.305 247.502 142.305 247.502C142.305 247.502 154.147 302.974 154.147 306.712C154.147 310.45 150.459 315.434 144.764 345.986C144.651 346.601 144.554 347.248 144.44 347.895C165.18 352.653 186.445 354.73 207.714 354.077C232.078 353.025 247.82 346.358 256.912 340.775C251.88 316.874 247.124 299.673 247.593 293.621C248.062 287.569 252.188 279.057 254.372 269.817C262.234 277.067 271.068 284.381 274.902 284.721C282.506 285.287 289.462 276.63 290.53 270.691C291.598 264.752 264.645 216.222 259.791 205.429Z" fill="#92E3A9" stroke="#263238" stroke-linecap="round" stroke-linejoin="round"/>
<path d="M133.504 198.374C133.504 198.374 124.153 203.05 122.179 206.465C120.205 209.879 93.4301 309.091 93.4301 309.091L126.191 313.12L146.236 247.793C146.236 247.793 150.232 230.43 146.236 221.077" fill="#92E3A9"/>
<path d="M133.504 198.374C133.504 198.374 124.153 203.05 122.179 206.465C120.205 209.879 93.4301 309.091 93.4301 309.091L126.191 313.12L146.236 247.793C146.236 247.793 150.232 230.43 146.236 221.077" stroke="#263238" stroke-linecap="round" stroke-linejoin="round"/>
<path d="M198.362 160.217C203.145 159.914 207.915 160.985 212.108 163.305C216.302 165.624 219.745 169.095 222.031 173.308C230.768 188.276 232.013 216.319 232.013 216.319C232.013 216.319 214.557 199.49 208.328 196.998C202.1 194.506 187.766 196.367 181.537 206.351C178.09 211.771 174.967 217.391 172.186 223.181C172.186 223.181 155.312 191.399 160.974 173.324C166.637 155.249 198.362 160.217 198.362 160.217Z" fill="white" stroke="#263238" stroke-linecap="round" stroke-linejoin="round"/>
<path d="M200.854 149.019C200.854 149.019 198.993 154.634 205.222 171.544C211.451 188.454 210.205 217.663 202.714 215.235C195.224 212.808 180.906 184.49 179.046 172.078C177.185 159.666 175.308 144.035 175.308 144.035L200.854 149.019Z" fill="#BFBFBF" stroke="#263238" stroke-linecap="round" stroke-linejoin="round"/>
<path d="M158.111 46.7487C158.111 46.7487 149.407 40.7775 145.735 44.904C142.062 49.0304 144.359 54.9853 142.984 56.8301C141.609 58.6748 127.874 53.5937 123.748 63.3028C119.623 73.012 131.045 78.8214 129.249 83.8701C127.453 88.9189 122.373 91.6536 123.295 97.6248C124.217 103.596 132.905 106.331 131.999 110.91C131.093 115.49 128.327 121.38 133.374 124.616C138.422 127.853 146.317 122.221 148.808 125.943C151.3 129.665 160.408 133.775 164.987 130.571C169.565 127.367 173.076 122.561 174.694 124.098C176.311 125.636 189.254 129.697 191.05 126.493C192.846 123.289 193.8 116.412 196.534 114.583C199.268 112.755 206.63 110.91 205.707 104.874C204.785 98.8384 197.91 96.1684 199.236 90.6665C200.563 85.1647 203.831 77.8342 202.472 74.614C201.113 71.3938 195.758 72.834 195.758 68.74C195.758 64.646 199.883 57.7362 196.211 54.0791C192.538 50.422 184.757 52.7037 182.006 50.4058C179.256 48.108 179.256 41.2468 173.755 41.2468C168.255 41.2468 161.314 47.6549 158.111 46.7487Z" fill="#263238" stroke="#263238" stroke-linecap="round" stroke-linejoin="round"/>
<path d="M153.791 125.264C153.791 125.264 151.106 117.852 146.721 119.875C142.337 121.898 145.104 134.034 149.423 139.763C153.743 145.491 159.858 138.403 159.858 138.403L153.791 125.264Z" fill="#BFBFBF" stroke="#263238" stroke-linecap="round" stroke-linejoin="round"/>
<path d="M148.436 131.251C148.436 131.251 146.932 125.603 148.808 125.992C150.685 126.38 155.959 132.011 155.959 132.011C155.959 132.011 151.106 131.251 152.578 133.516" stroke="#263238" stroke-linecap="round" stroke-linejoin="round"/>
<path d="M221.368 121.752C221.368 121.752 222.856 114.001 227.5 115.279C232.143 116.558 231.415 128.969 228.001 135.329C224.587 141.688 217.485 135.652 217.485 135.652L221.368 121.752Z" fill="#BFBFBF" stroke="#263238" stroke-linecap="round" stroke-linejoin="round"/>
<path d="M227.629 126.817C227.629 126.817 228.211 120.992 226.416 121.671C224.62 122.351 220.316 128.743 220.316 128.743C220.316 128.743 225.024 127.222 223.892 129.697" stroke="#263238" stroke-linecap="round" stroke-linejoin="round"/>
<path d="M159.26 65.7787L159.13 65.8919C142.369 79.8732 144.198 103.806 151.931 122.108C156.299 132.465 160.473 142.384 166.637 151.77C174.386 163.566 186.811 174.424 199.608 170.071C212.405 165.718 224.183 131.672 223.876 106.072C223.682 91.3624 217.987 75.1642 206.856 65.0181C200.878 59.7007 193.177 56.7288 185.177 56.652C175.769 56.7546 166.657 59.963 159.26 65.7787Z" fill="#BFBFBF" stroke="#263238" stroke-linecap="round" stroke-linejoin="round"/>
<path d="M173.869 129.503L180.68 128.209" stroke="#263238" stroke-linecap="round" stroke-linejoin="round"/>
<path d="M201.889 125.587L208.959 126.105" stroke="#263238" stroke-linecap="round" stroke-linejoin="round"/>
<path d="M184.433 132.351C184.433 132.351 182.071 136.381 183.414 138.403C183.824 138.969 184.414 139.378 185.087 139.563C185.761 139.749 186.477 139.699 187.119 139.423C189.085 140.016 191.165 140.133 193.185 139.763C196.211 139.083 196.89 137.74 196.89 137.74C196.89 137.74 198.913 139.083 199.592 136.122C200.272 133.16 196.89 130.393 196.89 130.393" stroke="#263238" stroke-linecap="round" stroke-linejoin="round"/>
<path d="M181.084 148.889C181.084 148.889 188.154 160.006 195.903 157.304C203.653 154.602 205.61 145.507 205.61 145.507C197.977 149.129 189.413 150.31 181.084 148.889Z" fill="#808080" stroke="#263238" stroke-linecap="round" stroke-linejoin="round"/>
<path d="M181.084 148.889C181.084 148.889 195.903 152.255 205.659 145.507C205.659 145.507 199.932 143.889 197.246 144.164C195.498 144.483 193.933 145.448 192.862 146.866C190.945 146.005 188.902 145.458 186.811 145.248C184.433 145.151 181.084 148.889 181.084 148.889Z" fill="#808080" stroke="#263238" stroke-linecap="round" stroke-linejoin="round"/>
<path d="M206.015 121.25C206.015 123.564 205.125 125.474 203.928 125.506C202.731 125.539 201.695 123.662 201.663 121.331C201.631 119.001 202.553 117.108 203.75 117.092C204.947 117.075 205.966 118.92 206.015 121.25Z" fill="#263238"/>
<path d="M179.029 123.208C179.499 125.49 178.932 127.529 177.751 127.772C176.57 128.015 175.228 126.364 174.758 124.098C174.289 121.833 174.855 119.778 176.036 119.535C177.217 119.292 178.56 120.927 179.029 123.208Z" fill="#263238"/>
<path d="M165.246 117.189C165.246 117.189 168.611 110.441 179.806 111.46" stroke="#263238" stroke-linecap="round" stroke-linejoin="round"/>
<path d="M195.903 111.121C195.903 111.121 204.996 107.075 211.386 114.826" stroke="#263238" stroke-linecap="round" stroke-linejoin="round"/>
<path d="M206.824 65.0181C200.854 59.708 193.166 56.7366 185.177 56.652C175.774 56.7755 166.675 60.0009 159.292 65.8272L159.162 65.9405C142.79 79.6143 144.165 102.803 151.462 120.959C152.319 114.826 155.393 100.764 166.022 92.0096C179.822 80.5528 193.638 82.5756 203.07 87.6243C212.641 92.8165 219.991 101.319 223.746 111.541C223.746 109.68 223.876 107.852 223.843 106.072C223.649 91.3624 217.954 75.1642 206.824 65.0181Z" fill="#263238" stroke="#263238" stroke-linecap="round" stroke-linejoin="round"/>
<path d="M147.741 83.158C147.741 83.158 148.744 95.958 162.301 94.6148" stroke="#6E6E6E" stroke-linecap="round" stroke-linejoin="round"/>
<path d="M153.128 72.7207C153.128 72.7207 152.109 90.2296 168.95 89.2263" stroke="#6E6E6E" stroke-linecap="round" stroke-linejoin="round"/>
<path d="M159.26 65.7786C159.26 65.7786 166.637 83.8377 179.402 84.1613" stroke="#6E6E6E" stroke-linecap="round" stroke-linejoin="round"/>
<path d="M179.725 57.5582C182.945 60.8915 185.257 64.9955 186.438 69.4777C187.619 73.9598 187.631 78.6702 186.471 83.1581" stroke="#6E6E6E" stroke-linecap="round" stroke-linejoin="round"/>
<path d="M198.249 59.8884C198.249 59.8884 211.726 70.3258 200.611 86.4916" stroke="#6E6E6E" stroke-linecap="round" stroke-linejoin="round"/>
<path d="M211.386 93.2718C213.224 91.1587 214.618 88.6972 215.486 86.0339C216.353 83.3706 216.675 80.56 216.434 77.7695" stroke="#6E6E6E" stroke-linecap="round" stroke-linejoin="round"/>
<path d="M210.318 172.321C210.318 172.321 194.965 168.324 192.296 171.657C191.536 172.472 191.114 173.545 191.114 174.659C191.114 175.773 191.536 176.846 192.296 177.661L196.292 179.004C196.292 179.004 198.961 195.04 204.979 196.367C209.605 197.239 214.299 197.689 219.006 197.71C219.006 197.71 263.318 280.821 267.331 284.154C271.343 287.488 284.027 294.851 289.98 281.484C295.934 268.118 288.637 262.066 285.968 256.111C283.298 250.156 217.615 173 216.951 170.994C216.288 168.987 210.836 161.835 210.173 158.501C209.509 155.168 204.818 156.495 204.818 159.844C204.818 163.194 210.318 172.321 210.318 172.321Z" fill="#BFBFBF" stroke="#263238" stroke-linecap="round" stroke-linejoin="round"/>
<path d="M189.4 243.473L183.851 326.778L252.689 320.111L263.804 237.922L189.4 243.473Z" fill="white" stroke="#9E9E9E" stroke-linecap="round" stroke-linejoin="round"/>
<path d="M172.218 287.196L178.237 268.506L187.669 263.781V274.461C187.669 274.461 213.554 269.121 214.897 271.128C216.24 273.134 211.548 275.804 211.548 275.804C211.548 275.804 206.888 287.132 205.546 289.818C204.203 292.504 182.993 297.909 179.66 298.508C177.178 299.047 174.727 299.716 172.315 300.514C172.315 300.514 114.219 330.435 108.88 332.441C103.542 334.448 92.8477 325.095 92.8477 315.078C92.8477 305.061 98.866 301.712 104.173 299.705C109.479 297.699 172.218 287.196 172.218 287.196Z" fill="#BFBFBF" stroke="#263238" stroke-linecap="round" stroke-linejoin="round"/>
</svg>
