<svg width="56" height="56" viewBox="0 0 56 56" fill="none" xmlns="http://www.w3.org/2000/svg">
<path d="M34.2727 14H40.5455C41.9184 14 43.2778 14.2587 44.5462 14.7612C45.8146 15.2638 46.9671 16.0003 47.9379 16.9289C48.9087 17.8575 49.6788 18.9599 50.2042 20.1732C50.7296 21.3864 51 22.6868 51 24C51 25.3132 50.7296 26.6136 50.2042 27.8268C49.6788 29.0401 48.9087 30.1425 47.9379 31.0711C46.9671 31.9997 45.8146 32.7362 44.5462 33.2388C43.2778 33.7413 41.9184 34 40.5455 34H34.2727M21.7273 34H15.4545C14.0816 34 12.7222 33.7413 11.4538 33.2388C10.1854 32.7362 9.03286 31.9997 8.06207 31.0711C6.10146 29.1957 5 26.6522 5 24C5 21.3478 6.10146 18.8043 8.06207 16.9289C10.0227 15.0536 12.6818 14 15.4545 14H21.7273" stroke="#F2F2F2" stroke-width="2" stroke-linecap="round" stroke-linejoin="round"/>
<path d="M20 24H36" stroke="#F2F2F2" stroke-width="2" stroke-linecap="round" stroke-linejoin="round"/>
</svg>
